<svg width="310" height="215" viewBox="0 0 310 215" fill="none" xmlns="http://www.w3.org/2000/svg">
<path fill-rule="evenodd" clip-rule="evenodd" d="M157.974 90.5608C157.884 88.3 158.437 86.0605 159.571 84.1031C168.105 69.6697 183.391 59.6429 201.097 57.823C201.885 57.745 202.64 58.1589 203 58.8648C210.314 73.3407 214.435 89.7003 214.435 107.014C214.435 166.077 166.484 214.028 107.421 214.028C48.3589 214.028 0.406799 166.077 0.406799 107.014C0.406799 47.9522 48.3589 1.31428e-05 107.421 1.31428e-05C120.87 1.31428e-05 133.743 2.48615 145.606 7.02467C146.045 7.19476 146.345 7.60444 146.378 8.0736C146.409 8.54276 146.168 8.98919 145.757 9.21881C128.045 19.2228 113.45 34.2842 103.829 52.2441C103.486 52.8862 102.844 53.3128 102.12 53.3794C74.6262 56.0257 53.1044 79.0471 53.1044 107.014C53.1044 136.757 77.4426 160.904 107.421 160.904C127.42 160.904 144.91 150.157 154.337 134.171C156.264 130.899 157.635 127.33 158.395 123.609C160.229 114.023 161.292 108.063 174.213 107.897C160.841 108.068 158.327 101.388 157.974 90.5608Z" fill="white"/>
<path fill-rule="evenodd" clip-rule="evenodd" d="M153.38 87.013C153.281 87.4793 153.167 87.9442 153.04 88.4035C151.108 95.5415 151.69 101.033 147.435 104.448C144.681 106.658 140.608 107.859 134.643 107.887C148.734 107.822 152.1 114.574 152.678 124.938C152.79 126.787 152.355 128.627 151.428 130.228C142.813 144.854 127.497 155.055 109.582 156.684C108.719 156.759 107.896 156.304 107.499 155.533C100.067 140.966 95.876 124.476 95.876 107.014C95.876 47.9522 143.828 1.97433e-05 202.89 1.97433e-05C232.426 1.97433e-05 259.182 11.9913 278.534 31.3742C278.887 31.73 279.063 32.2247 279.013 32.7236C278.963 33.2225 278.694 33.6733 278.279 33.9539C270.893 38.9489 241.33 58.9286 235.68 62.7485C235.117 63.1269 234.38 63.1212 233.823 62.7343C225.048 56.6749 214.384 53.1243 202.89 53.1243C180.481 53.1243 156.915 71.0814 153.38 87.013Z" fill="white"/>
<path fill-rule="evenodd" clip-rule="evenodd" d="M163.312 204.341C162.906 204.567 162.667 205.006 162.695 205.47C162.725 205.933 163.017 206.34 163.448 206.513C175.656 211.362 188.964 214.028 202.89 214.028C261.953 214.028 309.904 166.077 309.904 107.014C309.904 97.5641 308.676 88.3992 306.36 79.6779C302.693 65.742 296.268 52.9202 287.703 41.8248C287.146 41.1076 286.131 40.9389 285.371 41.4378C276.412 47.3186 225.255 80.8997 216.483 86.6586C216.144 86.8812 215.907 87.2299 215.825 87.6267C215.741 88.025 215.821 88.4389 216.043 88.7791C219.768 94.4515 234.757 117.286 238.309 122.698C238.729 123.335 239.585 123.513 240.223 123.094C243.296 121.077 251.685 115.569 255.283 113.208C255.589 113.007 255.986 113.001 256.296 113.195C256.608 113.389 256.778 113.747 256.733 114.111C253.4 139.226 232.609 158.911 206.864 160.76C206.073 160.814 205.368 161.274 204.998 161.972C204.144 163.587 203.285 165.21 202.34 166.752C192.792 182.34 179.157 195.379 163.312 204.341Z" fill="white"/>
</svg>
